#!OML:ASF F:\VICON\USERDATA\INSTALL\rory3\rory3.ASF
:FULLY-SPECIFIED
:DEGREES
96
root -0.480075 17.2075 20.5928 2.85058 -0.372539 -0.0807568
lowerback 17.694 0.110632 -3.25461
upperback 2.61658 -0.602021 -1.6649
thorax -7.08775 -0.228856 0.20639
lowerneck -5.22762 0.921346 -2.50677
upperneck -10.4099 1.41674 1.40077
head -2.42881 0.769458 0.861299
rclavicle 2.78299e-015 -7.15625e-015
rhumerus -47.763 11.7661 -90.7625
rradius 92.1282
rwrist -2.8062
rhand -38.4847 35.1435
rfingers 7.12502
rthumb -11.5068 5.47936
lclavicle 2.78299e-015 -7.15625e-015
lhumerus -17.1149 -16.0686 84.2369
lradius 113.189
lwrist 28.5339
lhand -36.677 7.45357
lfingers 7.12502
lthumb -9.76301 37.2073
rfemur -19.5046 -3.10577 18.1076
rtibia 109.024
rfoot 25.4254 -8.30186
rtoes 30.8288
lfemur -16.5681 -2.11681 -24.9943
ltibia 43.2304
lfoot -19.809 1.95039
ltoes -17.9711
97
root -0.454077 17.2149 21.0859 2.95033 -1.33091 -0.079982
lowerback 17.6263 0.156259 -3.27358
upperback 2.63796 -0.55062 -1.7578
thorax -7.03006 -0.206236 0.105721
lowerneck -5.32953 1.15789 -2.3521
upperneck -10.5361 1.71059 1.12299
head -2.45386 0.916967 0.744677
rclavicle 3.97569e-015 0
rhumerus -48.7976 10.6318 -90.7601
rradius 91.7797
rwrist -3.207
rhand -38.8452 35.4389
rfingers 7.12502
rthumb -11.8544 5.79444
lclavicle 3.97569e-015 0
lhumerus -15.0602 -15.8074 83.5266
lradius 113.327
lwrist 27.7866
lhand -35.7525 7.19497
lfingers 7.12502
lthumb -8.87101 36.9885
rfemur -22.7737 -2.12731 18.436
rtibia 110.019
rfoot 24.3339 -7.91057
rtoes 29.4033
lfemur -14.3369 -1.56568 -25.2894
ltibia 42.496
lfoot -20.2872 2.53212
ltoes -18.322
98
root -0.434439 17.2565 21.5981 2.78333 -2.48942 -0.0734407
lowerback 17.7679 0.233416 -3.45992
upperback 2.70138 -0.497707 -1.83943
thorax -7.03921 -0.178215 0.111852
lowerneck -5.98379 1.46656 -2.2321
upperneck -10.0206 2.11974 0.962529
head -2.17333 1.11921 0.67491
rclavicle -8.54774e-015 1.03368e-014
rhumerus -49.7304 9.77401 -90.8227
rradius 91.5239
rwrist -3.87609
rhand -38.4283 35.5856
rfingers 7.12502
rthumb -11.4523 5.91836
lclavicle -8.54774e-015 1.03368e-014
lhumerus -13.4409 -15.0138 82.8234
lradius 113.673
lwrist 26.7985
lhand -35.1318 8.33325
lfingers 7.12502
lthumb -8.27202 38.1513
rfemur -25.566 -0.878072 18.798
rtibia 110.317
rfoot 23.6491 -7.54843
rtoes 27.6336
lfemur -11.7106 -0.790401 -25.5934
ltibia 41.4677
lfoot -20.2677 3.04707
ltoes -18.564
99
root -0.421071 17.3048 22.0984 2.79165 -3.16282 0.138019
lowerback 17.7563 0.133035 -3.79898
upperback 2.67449 -0.703746 -1.94565
thorax -7.05377 -0.270689 0.238157
lowerneck -6.17527 1.80358 -1.99662
upperneck -9.72877 2.54423 0.683575
head -2.04369 1.32677 0.548391
rclavicle -6.95746e-015 -8.74653e-015
rhumerus -50.7634 9.23715 -90.9402
rradius 91.5188
rwrist -4.49878
rhand -37.9885 35.2713
rfingers 7.12502
rthumb -11.0282 5.58105
lclavicle -6.95746e-015 -8.74653e-015
lhumerus -12.3319 -14.231 82.321
lradius 114.195
lwrist 25.8936
lhand -35.0982 8.64946
lfingers 7.12502
lthumb -8.23954 38.4688
rfemur -28.5182 -0.150811 18.8899
rtibia 110.203
rfoot 22.4775 -7.10595
rtoes 26.2266
lfemur -9.21909 -0.448014 -26.0748
ltibia 40.1509
lfoot -19.6304 3.39555
ltoes -20.7332
100
root -0.412614 17.3473 22.5763 3.52088 -2.74307 0.731084
lowerback 17.2182 -0.361417 -4.42105
upperback 2.4473 -1.44977 -1.98526
thorax -6.96715 -0.615142 0.714944
lowerneck -6.03829 2.10929 -2.11634
upperneck -9.78246 2.94612 0.561947
head -2.09104 1.53291 0.528246
rclavicle 1.78906e-015 -3.18055e-015
rhumerus -51.6339 8.93761 -90.9071
rradius 91.4193
rwrist -4.77089
rhand -37.838 34.6519
rfingers 7.12502
rthumb -10.883 4.9539
lclavicle 1.78906e-015 -3.18055e-015
lhumerus -11.5438 -13.5702 82.1039
lradius 114.764
lwrist 25.1125
lhand -35.4498 7.60874
lfingers 7.12502
lthumb -8.57883 37.4145
rfemur -32.2417 -0.681938 18.4324
rtibia 109.831
rfoot 20.3266 -6.15769
rtoes 21.5831
lfemur -7.64497 -1.06886 -26.8961
ltibia 38.6417
lfoot -18.1814 3.36463
ltoes -23.889
101
root -0.401821 17.4123 23.0867 3.29231 -2.8858 1.09686
lowerback 17.6054 -0.637124 -4.87682
upperback 2.31791 -1.93025 -2.00679
thorax -7.28367 -0.82665 1.0662
lowerneck -5.67127 2.33402 -2.2292
upperneck -9.762 3.23418 0.455509
head -2.15198 1.68089 0.508999
rclavicle -3.97569e-015 -1.98785e-014
rhumerus -52.629 8.67711 -90.9351
rradius 91.246
rwrist -5.19243
rhand -37.7043 34.4409
rfingers 7.12502
rthumb -10.7541 4.73621
lclavicle -3.97569e-015 -1.98785e-014
lhumerus -11.3243 -13.1074 81.934
lradius 115.463
lwrist 24.9928
lhand -35.7302 6.63584
lfingers 7.12502
lthumb -8.84947 36.4303
rfemur -34.338 -0.259195 18.3602
rtibia 108.653
rfoot 18.6655 -5.36915
rtoes 17.9842
lfemur -4.83711 -0.948501 -27.4555
ltibia 37.0326
lfoot -16.7322 3.16248
ltoes -26.1585
102
root -0.389308 17.4941 23.6078 3.26903 -2.52221 1.193
lowerback 17.8264 -1.13759 -4.89559
upperback 2.11106 -2.61066 -1.94449
thorax -7.58982 -1.14234 1.30975
lowerneck -5.3551 2.59331 -2.34238
upperneck -9.69467 3.57001 0.364197
head -2.19021 1.85244 0.494289
rclavicle -1.63003e-014 -3.97569e-014
rhumerus -53.7575 8.51767 -90.9794
rradius 91.3144
rwrist -5.46364
rhand -37.6455 33.8809
rfingers 7.12502
rthumb -10.6974 4.17319
lclavicle -1.63003e-014 -3.97569e-014
lhumerus -11.2643 -12.7094 81.8454
lradius 116.288
lwrist 25.7217
lhand -36.5011 6.0137
lfingers 7.12502
lthumb -9.59329 35.7753
rfemur -36.1509 -0.173542 18.5687
rtibia 106.867
rfoot 18.8967 -4.72516
rtoes 20.4783
lfemur -2.08702 -1.22781 -27.6439
ltibia 35.2965
lfoot -15.0767 2.4109
ltoes -27.0138
103
root -0.386756 17.566 24.1276 3.38376 -2.04062 0.933483
lowerback 17.7518 -1.68889 -4.65374
upperback 1.95706 -3.27362 -1.7414
thorax -7.68044 -1.46138 1.54637
lowerneck -5.16683 2.91735 -2.45831
upperneck -9.66273 3.99752 0.30282
head -2.22063 2.06979 0.489633
rclavicle -6.20208e-014 3.97569e-015
rhumerus -54.7708 8.40859 -90.9555
rradius 91.4666
rwrist -5.60357
rhand -37.547 33.4199
rfingers 7.12502
rthumb -10.6024 3.70736
lclavicle -6.20208e-014 3.97569e-015
lhumerus -11.2051 -12.2154 81.7928
lradius 117.023
lwrist 26.3952
lhand -36.8649 6.31417
lfingers 7.12502
lthumb -9.94434 36.0593
rfemur -37.9089 -0.014407 19.2631
rtibia 104.668
rfoot 18.748 -4.25189
rtoes 18.0689
lfemur 0.408901 -1.56295 -27.333
ltibia 33.5588
lfoot -12.9524 1.25922
ltoes -26.4499
104
root -0.387625 17.6584 24.6639 3.49271 -1.75392 0.978899
lowerback 17.4579 -2.11682 -4.89454
upperback 1.8411 -3.85471 -1.56346
thorax -7.5832 -1.73292 1.99513
lowerneck -4.8811 3.23742 -2.37994
upperneck -9.69679 4.38988 -0.062612
head -2.27585 2.26957 0.353834
rclavicle 1.13307e-014 -1.90833e-014
rhumerus -55.7148 8.4243 -90.8562
rradius 91.5878
rwrist -5.80956
rhand -37.4135 33.186
rfingers 7.12502
rthumb -10.4736 3.46692
lclavicle 1.13307e-014 -1.90833e-014
lhumerus -11.1689 -11.6791 81.7097
lradius 117.615
lwrist 27.0363
lhand -36.9598 5.79344
lfingers 7.12502
lthumb -10.0359 35.5341
rfemur -39.3902 0.191021 19.5314
rtibia 102.072
rfoot 17.7149 -3.58755
rtoes 13.8742
lfemur 2.73492 -1.74494 -27.3045
ltibia 31.9029
lfoot -10.5168 0.30778
ltoes -26.6829
105
root -0.388567 17.7437 25.1984 3.85187 -1.29956 0.910775
lowerback 16.9295 -2.62684 -4.90299
upperback 1.69059 -4.48678 -1.38285
thorax -7.39848 -2.0399 2.30855
lowerneck -4.72128 3.45458 -2.3007
upperneck -9.65067 4.6542 -0.333484
head -2.28217 2.40325 0.251059
rclavicle 2.64384e-014 3.89618e-014
rhumerus -56.5836 8.44191 -90.7932
rradius 91.6733
rwrist -6.22371
rhand -37.1811 32.8273
rfingers 7.12502
rthumb -10.2493 3.097
lclavicle 2.64384e-014 3.89618e-014
lhumerus -11.1993 -11.302 81.622
lradius 118.084
lwrist 27.7572
lhand -37.523 3.8688
lfingers 7.12502
lthumb -10.5791 33.5825
rfemur -40.9185 0.199153 19.9273
rtibia 99.2476
rfoot 16.1973 -2.81593
rtoes 11.3144
lfemur 4.59147 -2.1272 -27.0545
ltibia 30.324
lfoot -7.44967 -0.723971
ltoes -26.1554
106
root -0.386953 17.8224 25.7253 4.18238 -1.41313 0.654245
lowerback 16.6502 -2.93354 -4.82685
upperback 1.45895 -4.85295 -1.15518
thorax -7.4554 -2.2114 2.57857
lowerneck -4.80892 3.59245 -2.20921
upperneck -9.43699 4.82009 -0.587113
head -2.18838 2.48552 0.159441
rclavicle 4.77083e-015 -2.06736e-014
rhumerus -57.5145 8.4647 -90.6968
rradius 91.645
rwrist -6.45717
rhand -36.6198 32.8938
rfingers 7.12502
rthumb -9.70785 3.13756
lclavicle 4.77083e-015 -2.06736e-014
lhumerus -11.6126 -11.0421 81.7175
lradius 119.093
lwrist 29.3259
lhand -41.7267 7.4856
lfingers 7.12502
lthumb -14.6319 36.9494
rfemur -42.4137 0.901817 20.4405
rtibia 96.1733
rfoot 14.7488 -2.13505
rtoes 11.6482
lfemur 6.3785 -2.05844 -26.6731
ltibia 28.6355
lfoot -3.57364 -1.6593
ltoes -25.1401
107
root -0.380836 17.9072 26.2649 4.34157 -1.60731 0.74767
lowerback 16.5821 -3.11332 -5.04716
upperback 1.14893 -5.12848 -0.992344
thorax -7.6991 -2.32145 2.94193
lowerneck -4.90821 3.68255 -2.30298
upperneck -8.87408 4.9408 -0.707869
head -1.98713 2.5456 0.145645
rclavicle 3.75703e-014 -6.36111e-015
rhumerus -58.6991 8.3592 -90.4042
rradius 91.7106
rwrist -6.53715
rhand -35.9903 32.543
rfingers 7.12502
rthumb -9.10044 2.75931
lclavicle 3.75703e-014 -6.36111e-015
lhumerus -12.2411 -10.457 81.922
lradius 119.492
lwrist 29.7284
lhand -39.8908 7.03601
lfingers 7.12502
lthumb -12.8625 36.6197
rfemur -43.5031 1.60869 20.4437
rtibia 92.7611
rfoot 13.6959 -1.55345
rtoes 12.2785
lfemur 8.45116 -1.92939 -26.7366
ltibia 26.7012
lfoot 0.851694 -2.25513
ltoes -24.0013
108
root -0.357357 17.9712 26.7954 4.74806 -3.71217 0.784231
lowerback 16.2084 -2.62188 -5.41577
upperback 0.76329 -4.5414 -0.947734
thorax -7.92528 -2.01128 3.06039
lowerneck -5.27667 3.81372 -2.42298
upperneck -8.10537 5.14177 -0.6043
head -1.68426 2.64024 0.214091
rclavicle 5.28767e-014 -3.4191e-014
rhumerus -59.9822 8.16574 -90.1436
rradius 92.0898
rwrist -6.76672
rhand -35.7492 32.1442
rfingers 7.12502
rthumb -8.86781 2.35052
lclavicle 5.28767e-014 -3.4191e-014
lhumerus -12.8071 -10.0555 82.0036
lradius 119.588
lwrist 29.2135
lhand -36.9186 4.24288
lfingers 7.12502
lthumb -9.99614 33.9855
rfemur -45.189 3.8839 20.1321
rtibia 89.1461
rfoot 12.8706 -0.429315
rtoes 9.84711
lfemur 10.2698 -0.771355 -27.2965
ltibia 24.492
lfoot 5.54832 -1.45424
ltoes -21.6059
109
root -0.343701 18.0684 27.3906 4.58541 -3.07338 0.317664
lowerback 15.8176 -3.15715 -4.67624
upperback 0.756603 -5.07256 -0.722143
thorax -7.71042 -2.2995 2.97336
lowerneck -5.53523 3.91246 -2.48317
upperneck -7.5075 5.28848 -0.579302
head -1.45405 2.70857 0.244517
rclavicle 2.38542e-015 -1.98785e-014
rhumerus -61.1674 8.13429 -89.8995
rradius 92.3166
rwrist -7.05439
rhand -35.686 31.9115
rfingers 7.12502
rthumb -8.80678 2.11522
lclavicle 2.38542e-015 -1.98785e-014
lhumerus -13.6169 -10.5078 82.3348
lradius 120.408
lwrist 30.5676
lhand -37.2663 4.9534
lfingers 7.12502
lthumb -10.3316 34.6796
rfemur -44.7797 3.67951 20.7504
rtibia 84.8799
rfoot 11.0541 0.261686
rtoes 7.18597
lfemur 13.189 -1.65111 -26.7606
ltibia 21.7777
lfoot 10.1008 -0.785189
ltoes -20.5841
110
root -0.337459 18.1487 27.9664 4.56131 -3.04382 -0.13641
lowerback 15.3033 -3.38978 -4.22678
upperback 0.726647 -5.25584 -0.473121
thorax -7.45721 -2.41002 2.98802
lowerneck -5.2488 3.95787 -2.48475
upperneck -7.50927 5.33368 -0.716225
head -1.49877 2.73278 0.196604
rclavicle 3.49861e-014 1.35174e-014
rhumerus -62.1049 7.99784 -89.5664
rradius 92.2911
rwrist -7.2771
rhand -35.3138 32.0344
rfingers 7.12502
rthumb -8.44764 2.22335
lclavicle 3.49861e-014 1.35174e-014
lhumerus -14.1339 -10.7995 82.6399
lradius 120.719
lwrist 30.4785
lhand -37.1535 5.39509
lfingers 7.12502
lthumb -10.2227 35.1267
rfemur -44.6584 4.00005 21.315
rtibia 80.4786
rfoot 9.85146 0.946359
rtoes 5.15236
lfemur 16.0338 -2.12491 -26.3582
ltibia 18.6366
lfoot 14.4288 0.636665
ltoes -19.5881
